<svg width="174" height="32" viewBox="0 0 174 32" fill="none" xmlns="http://www.w3.org/2000/svg">
<g clip-path="url(#clip0_302_217492)">
<g clip-path="url(#clip1_302_217492)">
<path d="M16.9226 16.5406L16.9889 16.4769C17.033 16.4344 17.0769 16.3916 17.1205 16.3485L17.2096 16.2605L17.48 15.9934L17.8469 15.6308L18.1621 15.3193L18.4582 15.0268L18.7671 14.7216L19.0505 14.4416L19.4451 14.0517C19.5201 13.9781 19.5964 13.9058 19.6741 13.8349C19.8172 13.7041 19.9644 13.5779 20.1159 13.4564C20.2547 13.3451 20.3968 13.2379 20.5423 13.1349C20.7459 12.9906 20.9558 12.8547 21.1718 12.7273C21.383 12.6029 21.5996 12.487 21.8216 12.3797C22.03 12.279 22.2428 12.1863 22.4599 12.1017C22.5809 12.0545 22.7031 12.01 22.8265 11.968C22.8883 11.947 22.9505 11.9267 23.0129 11.907C22.4653 9.75221 21.4623 7.73981 20.0714 6.00538C19.9384 5.84006 19.7701 5.70671 19.5787 5.61519C19.3873 5.52368 19.1778 5.47633 18.9657 5.47664L7.60327 5.47656C7.55841 5.47653 7.51469 5.49069 7.47837 5.51702C7.44206 5.54335 7.41501 5.5805 7.4011 5.62315C7.38719 5.6658 7.38713 5.71176 7.40094 5.75444C7.41475 5.79712 7.44172 5.83434 7.47797 5.86075C11.3567 8.70356 14.5706 12.3561 16.8967 16.565L16.9226 16.5406Z" fill="#00D6B9"/>
<path d="M26.0623 18.5199L26.0547 18.5333L26.0633 18.5205L26.1157 18.4219C26.0978 18.4545 26.0804 18.4874 26.0623 18.5199Z" fill="#133C92"/>
<path d="M26.3086 18.0613L26.3226 18.035L26.3294 18.0215L26.3086 18.0613Z" fill="#133C92"/>
<path d="M29.6499 12.4092C27.6701 11.4392 25.4024 11.2321 23.2797 11.8274C23.1906 11.8525 23.1021 11.8789 23.0142 11.9066C22.9518 11.9263 22.8897 11.9466 22.8278 11.9676C22.7044 12.0096 22.5822 12.0541 22.4612 12.1013C22.2442 12.1859 22.0314 12.2785 21.8229 12.3793C21.601 12.4864 21.3844 12.6023 21.1731 12.727C20.9573 12.8542 20.7474 12.99 20.5436 13.1345C20.3982 13.2375 20.2561 13.3447 20.1172 13.456C19.9658 13.5774 19.8185 13.7036 19.6754 13.8345C19.5978 13.9054 19.5215 13.9777 19.4464 14.0513L19.0518 14.4412L18.7684 14.7212L18.4595 15.0264L18.1634 15.319L17.8482 15.6305L17.4813 15.993L17.211 16.2601L17.1218 16.3482C17.0782 16.3912 17.0344 16.434 16.9902 16.4766L16.9239 16.5402C16.8906 16.5719 16.8572 16.6035 16.8236 16.6349C16.7866 16.6696 16.7493 16.7041 16.7119 16.7385C15.7349 17.6362 14.6478 18.406 13.4766 19.0294C13.5465 19.0624 13.6166 19.0952 13.6868 19.1277C13.7424 19.1534 13.798 19.179 13.8537 19.2044C13.9075 19.2289 13.9614 19.2534 14.0154 19.2777C14.0686 19.3016 14.1218 19.3253 14.1751 19.349C14.2333 19.3748 14.2917 19.4005 14.3501 19.426C14.4175 19.4554 14.4849 19.4845 14.5525 19.5135C14.6171 19.5412 14.6819 19.5688 14.7467 19.5961C14.8307 19.6315 14.9149 19.6666 14.9993 19.7013C15.0671 19.7292 15.1349 19.7569 15.2029 19.7844C15.3074 19.8266 15.4122 19.8684 15.5173 19.9096C15.6164 19.9485 15.7157 19.987 15.8154 20.025C15.8898 20.0534 15.9644 20.0815 16.0391 20.1094C16.1675 20.1574 16.2963 20.2046 16.4256 20.2512C16.4908 20.2746 16.5562 20.2979 16.6216 20.321C16.713 20.3532 16.8046 20.3851 16.8964 20.4166C16.9719 20.4425 17.0475 20.4682 17.1232 20.4936C17.2339 20.5308 17.3448 20.5674 17.4561 20.6034C17.5729 20.6413 17.6901 20.6786 17.8076 20.7153C17.9509 20.7601 18.0948 20.804 18.2392 20.8471C18.3356 20.8759 18.4322 20.9042 18.5291 20.9322C18.7231 20.9882 18.918 21.0427 19.1139 21.0957C19.1843 21.1147 19.2546 21.1325 19.3248 21.1493C19.4583 21.1811 19.5915 21.2088 19.7244 21.2324C19.8772 21.2597 20.0295 21.2816 20.1811 21.2981C20.3878 21.3208 20.593 21.3336 20.7967 21.3368C20.9826 21.3397 21.1667 21.3347 21.3493 21.3218C21.5233 21.3095 21.6954 21.2902 21.8657 21.2637C22.1003 21.2274 22.3326 21.1775 22.5613 21.1141C22.7146 21.0716 22.8655 21.0232 23.0143 20.969C23.1518 20.9188 23.2871 20.8637 23.4203 20.8037C23.5737 20.7345 23.7239 20.6589 23.871 20.5769C23.9433 20.5366 24.0148 20.4948 24.0855 20.4514C24.1533 20.4097 24.2204 20.3667 24.2866 20.3222C24.3912 20.2521 24.4937 20.1785 24.594 20.1015C24.6797 20.0358 24.7638 19.9676 24.8463 19.8969C24.9946 19.7698 25.1373 19.6349 25.2744 19.4923C25.3417 19.4222 25.4076 19.3502 25.4721 19.2765C25.5536 19.1831 25.6328 19.0868 25.7095 18.9876C25.7706 18.9085 25.8302 18.8276 25.8881 18.745C26.0516 18.5112 26.1998 18.2671 26.3317 18.0143L26.4837 17.711L27.8573 14.9727L27.855 14.9783C28.2924 14.0201 28.9007 13.1496 29.6499 12.4092Z" fill="#133C9A"/>
<path d="M12.4194 26.5437C15.2027 26.5447 17.9357 25.8012 20.3349 24.3903C22.7342 22.9794 24.7124 20.9525 26.0646 18.5197C26.1582 18.3516 26.2488 18.1817 26.3363 18.0099C26.2036 18.2648 26.0543 18.5109 25.8896 18.7464C25.8317 18.8291 25.7721 18.9099 25.711 18.989C25.6343 19.0882 25.5552 19.1845 25.4735 19.2779C25.4091 19.3517 25.3432 19.4236 25.2759 19.4937C25.1389 19.6363 24.9962 19.7712 24.8478 19.8983C24.7654 19.969 24.6813 20.0372 24.5955 20.103C24.4952 20.1799 24.3927 20.2535 24.2881 20.3237C24.2219 20.3681 24.1548 20.4112 24.0869 20.4528C24.0163 20.4962 23.9448 20.538 23.8725 20.5784C23.7255 20.6604 23.5753 20.7359 23.4217 20.8051C23.2887 20.8651 23.1533 20.9202 23.0157 20.9704C22.8671 21.0246 22.7161 21.073 22.5627 21.1155C22.334 21.1789 22.1017 21.2289 21.8671 21.2652C21.6969 21.2916 21.5248 21.3109 21.3507 21.3232C21.1683 21.336 20.9841 21.341 20.7981 21.3382C20.5946 21.3349 20.3894 21.3221 20.1825 21.2995C20.031 21.2829 19.8787 21.261 19.7258 21.2338C19.593 21.2102 19.4598 21.1825 19.3262 21.1507C19.256 21.1339 19.1857 21.116 19.1153 21.097C18.9195 21.0441 18.7245 20.9896 18.5305 20.9336C18.4337 20.9056 18.337 20.8772 18.2406 20.8485C18.0963 20.8054 17.9524 20.7615 17.809 20.7167C17.6915 20.68 17.5743 20.6427 17.4575 20.6048C17.3463 20.5687 17.2353 20.5321 17.1246 20.495C17.0489 20.4696 16.9733 20.4439 16.8979 20.418C16.806 20.3865 16.7144 20.3546 16.6231 20.3224C16.5576 20.2993 16.4923 20.276 16.4271 20.2525C16.2977 20.206 16.1689 20.1588 16.0405 20.1108C15.9658 20.0829 15.8912 20.0548 15.8168 20.0264C15.7172 19.9884 15.6178 19.9499 15.5187 19.911C15.4136 19.8697 15.3088 19.828 15.2043 19.7858C15.1363 19.7583 15.0685 19.7306 15.0008 19.7027C14.9164 19.668 14.8322 19.6329 14.7482 19.5975C14.6833 19.5702 14.6185 19.5426 14.5539 19.5149C14.4863 19.4859 14.4189 19.4567 14.3516 19.4273C14.2931 19.4018 14.2348 19.3762 14.1766 19.3503C14.1232 19.3267 14.07 19.3029 14.0169 19.279C13.9629 19.2547 13.909 19.2303 13.8552 19.2058C13.7995 19.1803 13.7439 19.1548 13.6883 19.1291C13.6181 19.0965 13.548 19.0638 13.478 19.0308C13.4047 18.9962 13.3315 18.9613 13.2584 18.9262C13.1801 18.8886 13.102 18.8507 13.024 18.8124C12.9575 18.7799 12.8912 18.7471 12.825 18.714C9.3384 16.9745 6.19 14.6271 3.52771 11.782C3.49855 11.7509 3.46071 11.7293 3.4191 11.72C3.37749 11.7107 3.33404 11.7141 3.29439 11.7298C3.25475 11.7455 3.22075 11.7728 3.19681 11.808C3.17287 11.8433 3.1601 11.885 3.16016 11.9276L3.16581 21.9543V22.7678C3.16515 23.0005 3.22202 23.2298 3.33134 23.4352C3.44066 23.6407 3.59905 23.8159 3.79244 23.9454C6.34836 25.6445 9.35022 26.5486 12.4194 26.5436" fill="#3370FF"/>
<path d="M35.969 21V8.862H38.315V18.79H42.803V21H35.969ZM50.7168 15.084V18.195C50.7168 18.756 50.7678 19.946 50.8528 21H48.7448L48.6598 20.252C47.9968 20.881 47.1298 21.17 46.2288 21.17C44.4608 21.17 43.4748 20.15 43.4748 18.569C43.4748 16.903 45.2938 15.645 48.4388 15.322V15.05C48.4388 14.625 48.0648 14.489 47.3168 14.489C46.5518 14.489 45.8718 14.676 44.9198 15.05L44.2398 13.095C45.4468 12.585 46.4328 12.347 47.4188 12.347C49.5268 12.347 50.7168 13.367 50.7168 15.084ZM48.4388 17.923V17.345C46.7218 17.532 45.7528 18.008 45.7528 18.552C45.7528 18.909 46.0248 19.13 46.5008 19.13C47.4528 19.13 48.4388 18.467 48.4388 17.923ZM52.4524 21V15.611C52.4524 15.084 52.4184 13.843 52.3334 12.534H54.3904L54.4754 13.299C54.9004 12.67 55.3934 12.347 55.9374 12.347C56.4134 12.347 56.8554 12.466 57.2634 12.721L56.8554 14.829C56.3114 14.659 56.0904 14.642 55.8354 14.642C55.2064 14.642 54.7304 15.271 54.7304 16.461V21H52.4524ZM60.5919 21H58.3139V8.318H60.5919V15.05L62.8019 12.534H65.5559L62.0539 16.291L65.8449 21H63.0229L60.5919 17.634V21ZM77.3505 21L76.3985 17.719H73.0155L72.0805 21H69.5645L73.6105 8.862H75.7865L79.8665 21H77.3505ZM74.6985 11.582L73.5935 15.509H75.8205L74.6985 11.582ZM83.0206 24.808H80.7426V15.662C80.7426 15.05 80.6916 13.843 80.5556 12.534H82.6976L82.8166 13.248C83.4286 12.687 84.2616 12.347 85.1966 12.347C87.4406 12.347 89.1236 13.945 89.1236 16.767C89.1236 19.589 87.4236 21.17 85.1966 21.17C84.3466 21.17 83.6156 20.915 83.0206 20.439V24.808ZM83.0206 15.968V17.566C83.0206 18.433 83.7346 19.045 84.8906 19.045C86.0296 19.045 86.8286 18.314 86.8116 16.767C86.8116 15.22 86.0806 14.472 84.8906 14.472C83.7856 14.472 83.0206 15.152 83.0206 15.968ZM92.6993 24.808H90.4213V15.662C90.4213 15.05 90.3703 13.843 90.2343 12.534H92.3763L92.4953 13.248C93.1073 12.687 93.9403 12.347 94.8753 12.347C97.1193 12.347 98.8023 13.945 98.8023 16.767C98.8023 19.589 97.1023 21.17 94.8753 21.17C94.0253 21.17 93.2943 20.915 92.6993 20.439V24.808ZM92.6993 15.968V17.566C92.6993 18.433 93.4133 19.045 94.5693 19.045C95.7083 19.045 96.5073 18.314 96.4903 16.767C96.4903 15.22 95.7593 14.472 94.5693 14.472C93.4643 14.472 92.6993 15.152 92.6993 15.968ZM103.937 20.711V9.151C104.991 8.828 106.436 8.675 107.575 8.675C111.57 8.675 114.188 11.038 114.188 14.914C114.188 18.96 111.519 21.17 107.575 21.17C106.521 21.17 104.838 21 103.937 20.711ZM106.283 11.021V18.841C106.657 18.909 107.388 18.96 107.677 18.96C110.193 18.96 111.842 17.532 111.842 14.914C111.842 12.381 110.244 10.902 107.66 10.902C107.235 10.902 106.64 10.953 106.283 11.021ZM117.717 21H115.439V12.534H117.717V21ZM117.768 10.936H115.388V8.862H117.768V10.936ZM119.473 21V15.611C119.473 15.084 119.439 13.843 119.354 12.534H121.411L121.496 13.299C121.921 12.67 122.414 12.347 122.958 12.347C123.434 12.347 123.876 12.466 124.284 12.721L123.876 14.829C123.332 14.659 123.111 14.642 122.856 14.642C122.227 14.642 121.751 15.271 121.751 16.461V21H119.473ZM132.695 17.617H127.102C127.34 18.518 128.071 19.045 129.227 19.045C129.941 19.045 130.723 18.909 131.607 18.603L132.168 20.507C131.233 20.949 130.281 21.17 129.227 21.17C126.456 21.17 124.79 19.623 124.79 16.75C124.79 14.234 126.507 12.347 128.751 12.347C131.114 12.347 132.695 13.996 132.695 16.41V17.617ZM127.102 15.645H130.383C130.213 14.829 129.584 14.353 128.751 14.353C127.867 14.353 127.255 14.897 127.102 15.645ZM139.815 18.671L140.376 20.626C139.628 20.949 138.846 21.17 137.996 21.17C135.14 21.17 133.389 19.47 133.389 16.75C133.389 14.132 135.174 12.347 137.928 12.347C138.727 12.347 139.594 12.568 140.24 12.908L139.747 14.846C138.965 14.574 138.387 14.489 137.826 14.489C136.585 14.489 135.667 15.39 135.667 16.75C135.667 18.195 136.602 19.028 137.894 19.028C138.421 19.028 139.118 18.909 139.815 18.671ZM141.812 10.562L144.09 9.933V12.534H145.96V14.676H144.09V18.331C144.09 18.841 144.277 19.028 144.702 19.028C144.957 19.028 145.314 18.994 145.858 18.875L145.994 20.915C145.467 21.085 144.889 21.17 144.345 21.17C142.764 21.17 141.812 20.201 141.812 18.484V14.676H140.741V12.534H141.812V10.562ZM150.904 12.347C153.335 12.347 155.154 14.132 155.154 16.75C155.154 19.419 153.301 21.17 150.904 21.17C148.405 21.17 146.654 19.402 146.654 16.75C146.654 14.081 148.422 12.347 150.904 12.347ZM150.904 14.489C149.527 14.489 148.949 15.492 148.949 16.75C148.949 18.127 149.578 19.028 150.904 19.028C152.196 19.028 152.859 18.161 152.859 16.75C152.859 15.458 152.264 14.489 150.904 14.489ZM156.445 21V15.611C156.445 15.084 156.411 13.843 156.326 12.534H158.383L158.468 13.299C158.893 12.67 159.386 12.347 159.93 12.347C160.406 12.347 160.848 12.466 161.256 12.721L160.848 14.829C160.304 14.659 160.083 14.642 159.828 14.642C159.199 14.642 158.723 15.271 158.723 16.461V21H156.445ZM161.371 12.534H163.785L165.57 17.838L167.253 12.534H169.667L166.029 22.19C165.315 24.077 164.108 24.808 162 24.808L161.677 22.785C163.173 22.785 163.751 22.479 164.142 21.561L164.652 20.354L161.371 12.534Z" fill="#EEEEEE"/>
</g>
</g>
<defs>
<clipPath id="clip0_302_217492">
<rect width="174" height="32" fill="white"/>
</clipPath>
<clipPath id="clip1_302_217492">
<rect width="224" height="32" fill="white"/>
</clipPath>
</defs>
</svg>
