<svg width="13" height="14" viewBox="0 0 13 14" fill="none" xmlns="http://www.w3.org/2000/svg">
<path d="M12.1334 7.00001C12.1334 9.99155 9.70824 12.4167 6.7167 12.4167C4.99434 12.4167 3.45973 11.6128 2.46761 10.3598L3.32835 9.70155C4.12236 10.6961 5.34511 11.3333 6.7167 11.3333C9.10993 11.3333 11.05 9.39324 11.05 7.00001C11.05 4.60678 9.10993 2.66668 6.7167 2.66668C4.56953 2.66668 2.78711 4.22833 2.44328 6.27779H2.97911C3.20985 6.27779 3.34747 6.53494 3.21948 6.72692L2.1612 8.0839C2.04685 8.25542 1.79481 8.25542 1.68046 8.0839L0.572076 6.72692C0.444088 6.53494 0.581712 6.27779 0.812446 6.27779H1.34776C1.70085 3.6277 3.97003 1.58334 6.7167 1.58334C9.70824 1.58334 12.1334 4.00847 12.1334 7.00001Z" fill="#8F959E"/>
<path d="M7.31245 6.45834V4.83334C7.31245 4.53419 7.06993 4.29168 6.77078 4.29168C6.47163 4.29168 6.22911 4.53419 6.22911 4.83334V7.25279C6.22911 7.41234 6.35845 7.54168 6.518 7.54168H8.30558C8.60474 7.54168 8.84725 7.29916 8.84725 7.00001C8.84725 6.70086 8.60474 6.45834 8.30558 6.45834H7.31245Z" fill="#8F959E"/>
</svg>
