<svg width="18" height="18" viewBox="0 0 18 18" fill="none" xmlns="http://www.w3.org/2000/svg">
<path d="M12.355 13.4156C11.1311 14.4065 9.57236 15 7.875 15C3.93997 15 0.75 11.81 0.75 7.875C0.75 3.93997 3.93997 0.75 7.875 0.75C11.81 0.75 15 3.93997 15 7.875C15 9.57236 14.4065 11.1311 13.4156 12.355L16.2451 15.1844C16.5362 15.4755 16.5307 15.9485 16.2396 16.2396C15.9485 16.5307 15.4755 16.5362 15.1844 16.2451L12.355 13.4156ZM13.5 7.875C13.5 4.7684 10.9816 2.25 7.875 2.25C4.7684 2.25 2.25 4.7684 2.25 7.875C2.25 10.9816 4.7684 13.5 7.875 13.5C10.9816 13.5 13.5 10.9816 13.5 7.875Z" fill="#646A73"/>
</svg>
