<svg width="13" height="14" viewBox="0 0 13 14" fill="none" xmlns="http://www.w3.org/2000/svg">
<path d="M8.39587 4.02083C8.39587 2.52502 7.18254 1.3125 5.68754 1.3125C4.19254 1.3125 2.97921 2.52502 2.97921 4.02083C2.97921 5.51665 4.19254 6.72917 5.68754 6.72917C7.18254 6.72917 8.39587 5.51665 8.39587 4.02083ZM5.68754 5.64583C4.79108 5.64583 4.06254 4.91837 4.06254 4.02083C4.06254 3.12329 4.79108 2.39583 5.68754 2.39583C6.584 2.39583 7.31254 3.12329 7.31254 4.02083C7.31254 4.91837 6.584 5.64583 5.68754 5.64583Z" fill="#8F959E"/>
<path d="M2.16671 10.7917C2.16671 10.6045 2.19108 10.4231 2.23442 10.25C2.47546 9.31563 3.32317 8.625 4.33337 8.625H6.77087V7.54167H4.33337C2.53775 7.54167 1.08337 8.99685 1.08337 10.7917V11.3333C1.08337 11.9292 1.57087 12.4167 2.16671 12.4167H6.77087V11.3333H2.16671V10.7917Z" fill="#8F959E"/>
<path d="M11.1392 9.00802C11.3507 8.79648 11.6937 8.79648 11.9052 9.00802C12.1167 9.21955 12.1167 9.56252 11.9052 9.77405L9.51987 12.1594C9.30833 12.3709 8.96537 12.3709 8.75383 12.1594L7.42472 10.8303C7.21319 10.6188 7.21319 10.2758 7.42472 10.0643C7.63626 9.85272 7.97922 9.85272 8.19076 10.0643L9.13685 11.0103L11.1392 9.00802Z" fill="#8F959E"/>
</svg>
