<svg width="13" height="14" viewBox="0 0 13 14" fill="none" xmlns="http://www.w3.org/2000/svg">
<path d="M11.3662 6.19893H12.4515C12.3167 3.62714 10.1887 1.58334 7.58329 1.58334C5.41961 1.58334 3.58514 2.99292 2.94811 4.94388C1.56213 5.31533 0.541626 6.58016 0.541626 8.08334C0.541626 9.87827 1.9967 11.3333 3.79163 11.3333C5.11226 11.3333 7.76064 11.3302 7.76064 11.3302L6.72128 10.25H3.79163C2.59501 10.25 1.62496 9.27996 1.62496 8.08334C1.62496 7.09685 2.29033 6.24174 3.22856 5.99028L3.79569 5.83829L3.97794 5.28014C4.48277 3.73406 5.93044 2.66668 7.58329 2.66668C9.59018 2.66668 11.2329 4.22584 11.3662 6.19893Z" fill="#8F959E"/>
<path d="M9.1542 9.99448L9.78464 10.6249L9.78468 7.55304C9.78469 7.25389 10.0272 7.01138 10.3264 7.01138C10.6255 7.01138 10.868 7.2539 10.868 7.55306L10.868 10.5789L11.4524 9.99442C11.664 9.78289 12.0069 9.78289 12.2184 9.99442C12.43 10.206 12.43 10.5489 12.2184 10.7605L10.6863 12.2926C10.4747 12.5041 10.1318 12.5041 9.92024 12.2926L8.38817 10.7605C8.17663 10.549 8.17663 10.206 8.38817 9.99448C8.5997 9.78294 8.94267 9.78294 9.1542 9.99448Z" fill="#8F959E"/>
</svg>
