<svg width="14" height="14" viewBox="0 0 14 14" fill="none" xmlns="http://www.w3.org/2000/svg">
<path d="M11.0097 4.08333C10.7506 5.08972 9.83708 5.83333 8.74984 5.83333C7.6626 5.83333 6.74904 5.08972 6.49001 4.08333H1.74984C1.42767 4.08333 1.1665 3.82217 1.1665 3.5C1.1665 3.17783 1.42767 2.91667 1.74984 2.91667H6.49001C6.74904 1.91028 7.6626 1.16667 8.74984 1.16667C9.83708 1.16667 10.7506 1.91028 11.0097 2.91667H12.2498C12.572 2.91667 12.8332 3.17783 12.8332 3.5C12.8332 3.82217 12.572 4.08333 12.2498 4.08333H11.0097ZM8.74984 4.66667C9.39417 4.66667 9.9165 4.14433 9.9165 3.5C9.9165 2.85567 9.39417 2.33333 8.74984 2.33333C8.1055 2.33333 7.58317 2.85567 7.58317 3.5C7.58317 4.14433 8.1055 4.66667 8.74984 4.66667Z" fill="#2B2F36"/>
<path d="M7.50966 11.0833C7.25063 12.0897 6.33708 12.8333 5.24984 12.8333C4.1626 12.8333 3.24904 12.0897 2.99001 11.0833H1.74984C1.42767 11.0833 1.1665 10.8222 1.1665 10.5C1.1665 10.1778 1.42767 9.91667 1.74984 9.91667H2.99001C3.24904 8.91028 4.1626 8.16667 5.24984 8.16667C6.33708 8.16667 7.25063 8.91028 7.50966 9.91667H12.2498C12.572 9.91667 12.8332 10.1778 12.8332 10.5C12.8332 10.8222 12.572 11.0833 12.2498 11.0833H7.50966ZM5.24984 11.6667C5.89417 11.6667 6.4165 11.1443 6.4165 10.5C6.4165 9.85567 5.89417 9.33333 5.24984 9.33333C4.6055 9.33333 4.08317 9.85567 4.08317 10.5C4.08317 11.1443 4.6055 11.6667 5.24984 11.6667Z" fill="#2B2F36"/>
</svg>
