<svg width="28" height="28" viewBox="0 0 28 28" fill="none" xmlns="http://www.w3.org/2000/svg">
<path d="M14.7624 14.864L14.8288 14.8004C14.8729 14.7578 14.9167 14.715 14.9604 14.672L15.0495 14.5839L15.3198 14.3168L15.6867 13.9543L16.002 13.6428L16.298 13.3502L16.607 13.045L16.8903 12.765L17.2849 12.3751C17.3599 12.3015 17.4363 12.2292 17.5139 12.1583C17.657 12.0275 17.8043 11.9014 17.9557 11.7799C18.0945 11.6686 18.2366 11.5614 18.3821 11.4583C18.5858 11.314 18.7956 11.1781 19.0116 11.0508C19.2228 10.9263 19.4394 10.8104 19.6614 10.7031C19.8698 10.6024 20.0826 10.5098 20.2998 10.4251C20.4207 10.378 20.5429 10.3334 20.6664 10.2914C20.7282 10.2704 20.7903 10.2501 20.8527 10.2304C20.3052 8.07565 19.3021 6.06325 17.9112 4.32882C17.7783 4.1635 17.6099 4.03015 17.4185 3.93864C17.2272 3.84712 17.0177 3.79977 16.8055 3.80008L5.44312 3.8C5.39826 3.79997 5.35454 3.81413 5.31822 3.84046C5.2819 3.86679 5.25485 3.90394 5.24094 3.94659C5.22703 3.98924 5.22698 4.0352 5.24079 4.07788C5.2546 4.12056 5.28156 4.15778 5.31782 4.18419C9.19652 7.027 12.4104 10.6795 14.7366 14.8884L14.7624 14.864Z" fill="#00D6B9"/>
<path d="M23.9021 16.8433L23.8945 16.8567L23.9032 16.8439L23.9556 16.7453C23.9377 16.7779 23.9202 16.8108 23.9021 16.8433Z" fill="#133C92"/>
<path d="M24.1484 16.3846L24.1624 16.3583L24.1692 16.3448L24.1484 16.3846Z" fill="#133C92"/>
<path d="M27.4898 10.7327C25.5099 9.76266 23.2423 9.55556 21.1195 10.1509C21.0304 10.1759 20.9419 10.2023 20.854 10.2301C20.7916 10.2497 20.7295 10.2701 20.6677 10.2911C20.5442 10.333 20.422 10.3776 20.3011 10.4247C20.084 10.5093 19.8713 10.602 19.6627 10.7027C19.4409 10.8099 19.2243 10.9258 19.0129 11.0504C18.7971 11.1776 18.5873 11.3134 18.3834 11.4579C18.238 11.5609 18.0959 11.6681 17.957 11.7795C17.8057 11.9009 17.6584 12.027 17.5152 12.1579C17.4376 12.2289 17.3613 12.3011 17.2862 12.3747L16.8916 12.7646L16.6083 13.0446L16.2993 13.3499L16.0033 13.6424L15.688 13.9539L15.3211 14.3164L15.0508 14.5835L14.9617 14.6716C14.9181 14.7147 14.8742 14.7575 14.8301 14.8L14.7637 14.8636C14.7304 14.8954 14.697 14.9269 14.6635 14.9583C14.6264 14.9931 14.5892 15.0276 14.5518 15.0619C13.5748 15.9596 12.4876 16.7294 11.3164 17.3529C11.3863 17.3858 11.4564 17.4186 11.5267 17.4511C11.5822 17.4768 11.6379 17.5024 11.6936 17.5278C11.7474 17.5524 11.8013 17.5768 11.8553 17.6011C11.9084 17.625 11.9616 17.6488 12.0149 17.6724C12.0732 17.6982 12.1315 17.7239 12.19 17.7494C12.2573 17.7788 12.3248 17.808 12.3923 17.837C12.457 17.8647 12.5217 17.8922 12.5866 17.9196C12.6706 17.9549 12.7548 17.99 12.8392 18.0248C12.9069 18.0527 12.9748 18.0804 13.0428 18.1078C13.1472 18.1501 13.252 18.1918 13.3571 18.233C13.4562 18.2719 13.5556 18.3104 13.6552 18.3484C13.7296 18.3768 13.8042 18.405 13.8789 18.4329C14.0073 18.4808 14.1362 18.5281 14.2655 18.5746C14.3307 18.5981 14.396 18.6213 14.4615 18.6444C14.5529 18.6767 14.6445 18.7085 14.7363 18.7401C14.8117 18.766 14.8873 18.7916 14.963 18.8171C15.0737 18.8542 15.1847 18.8908 15.2959 18.9269C15.4128 18.9648 15.5299 19.002 15.6474 19.0388C15.7908 19.0836 15.9346 19.1275 16.079 19.1706C16.1754 19.1993 16.2721 19.2277 16.3689 19.2557C16.5629 19.3117 16.7579 19.3662 16.9537 19.4191C17.0241 19.4381 17.0944 19.456 17.1647 19.4727C17.2982 19.5045 17.4314 19.5323 17.5642 19.5559C17.7171 19.5831 17.8693 19.605 18.0209 19.6216C18.2277 19.6442 18.4329 19.6571 18.6366 19.6602C18.8224 19.6632 19.0066 19.6582 19.1891 19.6452C19.3631 19.633 19.5353 19.6136 19.7055 19.5872C19.9401 19.5509 20.1724 19.5009 20.4012 19.4376C20.5544 19.3951 20.7054 19.3467 20.8541 19.2924C20.9916 19.2423 21.127 19.1872 21.2601 19.1271C21.4135 19.058 21.5638 18.9824 21.7109 18.9004C21.7832 18.8601 21.8547 18.8182 21.9253 18.7748C21.9932 18.7332 22.0602 18.6901 22.1265 18.6457C22.231 18.5755 22.3335 18.502 22.4339 18.425C22.5196 18.3592 22.6037 18.291 22.6862 18.2203C22.8344 18.0933 22.9771 17.9584 23.1142 17.8157C23.1816 17.7456 23.2475 17.6737 23.3119 17.5999C23.3935 17.5065 23.4726 17.4102 23.5493 17.311C23.6105 17.232 23.67 17.1511 23.7279 17.0684C23.8914 16.8346 24.0396 16.5906 24.1716 16.3377L24.3236 16.0345L25.6972 13.2961L25.6948 13.3018C26.1323 12.3436 26.7405 11.473 27.4898 10.7327Z" fill="#133C9A"/>
<path d="M10.2592 24.8671C13.0426 24.8681 15.7755 24.1246 18.1748 22.7137C20.574 21.3029 22.5523 19.276 23.9044 16.8431C23.9981 16.6751 24.0886 16.5051 24.1762 16.3333C24.0434 16.5883 23.8942 16.8343 23.7294 17.0698C23.6715 17.1525 23.612 17.2334 23.5508 17.3125C23.4741 17.4116 23.395 17.5079 23.3134 17.6013C23.249 17.6751 23.1831 17.747 23.1157 17.8172C22.9788 17.9597 22.8361 18.0946 22.6876 18.2218C22.6052 18.2924 22.5211 18.3606 22.4354 18.4264C22.335 18.5034 22.2326 18.577 22.128 18.6471C22.0617 18.6916 21.9946 18.7346 21.9268 18.7763C21.8562 18.8196 21.7847 18.8614 21.7124 18.9018C21.5654 18.9838 21.4151 19.0594 21.2616 19.1286C21.1285 19.1886 20.9932 19.2437 20.8556 19.2938C20.707 19.3481 20.556 19.3964 20.4026 19.439C20.1738 19.5024 19.9416 19.5523 19.707 19.5886C19.5368 19.615 19.3646 19.6343 19.1905 19.6466C19.0081 19.6595 18.8239 19.6645 18.638 19.6616C18.4345 19.6584 18.2293 19.6455 18.0224 19.623C17.8708 19.6064 17.7186 19.5845 17.5657 19.5573C17.4328 19.5336 17.2996 19.5059 17.1661 19.4741C17.0959 19.4574 17.0255 19.4395 16.9552 19.4205C16.7593 19.3676 16.5644 19.3131 16.3703 19.257C16.2735 19.229 16.1769 19.2007 16.0805 19.1719C15.9361 19.1289 15.7922 19.0849 15.6489 19.0401C15.5313 19.0034 15.4142 18.9661 15.2974 18.9283C15.1861 18.8922 15.0751 18.8556 14.9645 18.8184C14.8887 18.793 14.8132 18.7674 14.7377 18.7414C14.6459 18.7099 14.5543 18.678 14.4629 18.6458C14.3975 18.6227 14.3321 18.5994 14.2669 18.576C14.1376 18.5294 14.0087 18.4822 13.8804 18.4342C13.8056 18.4063 13.7311 18.3782 13.6567 18.3498C13.557 18.3118 13.4576 18.2733 13.3586 18.2344C13.2535 18.1932 13.1487 18.1514 13.0442 18.1092C12.9762 18.0817 12.9083 18.054 12.8406 18.0262C12.7562 17.9914 12.672 17.9563 12.588 17.9209C12.5231 17.8936 12.4584 17.8661 12.3937 17.8383C12.3262 17.8094 12.2587 17.7802 12.1914 17.7508C12.133 17.7253 12.0746 17.6996 12.0164 17.6738C11.9631 17.6501 11.9099 17.6264 11.8568 17.6025C11.8028 17.5782 11.7488 17.5537 11.695 17.5292C11.6393 17.5038 11.5837 17.4782 11.5282 17.4525C11.4579 17.42 11.3878 17.3872 11.3179 17.3542C11.2445 17.3196 11.1713 17.2848 11.0983 17.2497C11.0199 17.212 10.9418 17.1741 10.8639 17.1359C10.7974 17.1033 10.731 17.0705 10.6649 17.0375C7.17824 15.298 4.02984 12.9505 1.36755 10.1055C1.33839 10.0744 1.30055 10.0527 1.25894 10.0434C1.21733 10.0341 1.17388 10.0375 1.13424 10.0532C1.0946 10.0689 1.06059 10.0962 1.03665 10.1315C1.01271 10.1668 0.999942 10.2084 1 10.2511L1.00565 20.2778V21.0912C1.005 21.324 1.06186 21.5532 1.17118 21.7587C1.2805 21.9641 1.4389 22.1394 1.63228 22.2688C4.18821 23.9679 7.19006 24.872 10.2592 24.8671" fill="#3370FF"/>
</svg>
