<svg width="26" height="26" viewBox="0 0 26 26" fill="none" xmlns="http://www.w3.org/2000/svg">
<path d="M2.16663 6.50008C2.16663 4.10685 4.10673 2.16675 6.49996 2.16675H7.58329C9.97653 2.16675 11.9166 4.10685 11.9166 6.50008V9.75008C11.9166 10.9467 10.9466 11.9167 9.74996 11.9167H6.49996C4.10673 11.9167 2.16663 9.97665 2.16663 7.58341V6.50008ZM6.49996 4.33341C5.30334 4.33341 4.33329 5.30346 4.33329 6.50008V7.58341C4.33329 8.78003 5.30334 9.75008 6.49996 9.75008H9.74996V6.50008C9.74996 5.30346 8.77991 4.33341 7.58329 4.33341H6.49996Z" fill="url(#paint0_linear_302_219871)"/>
<path d="M14.0833 6.50008C14.0833 4.10685 16.0234 2.16675 18.4166 2.16675H19.5C21.8932 2.16675 23.8333 4.10685 23.8333 6.50008V7.58341C23.8333 9.97665 21.8932 11.9167 19.5 11.9167H16.25C15.0533 11.9167 14.0833 10.9467 14.0833 9.75008V6.50008ZM18.4166 4.33341C17.22 4.33341 16.25 5.30346 16.25 6.50008V9.75008H19.5C20.6966 9.75008 21.6666 8.78003 21.6666 7.58341V6.50008C21.6666 5.30346 20.6966 4.33341 19.5 4.33341H18.4166Z" fill="url(#paint1_linear_302_219871)"/>
<path d="M2.16663 18.4167C2.16663 16.0235 4.10673 14.0834 6.49996 14.0834H9.74996C10.9466 14.0834 11.9166 15.0535 11.9166 16.2501V19.5001C11.9166 21.8933 9.97653 23.8334 7.58329 23.8334H6.49996C4.10673 23.8334 2.16663 21.8933 2.16663 19.5001V18.4167ZM6.49996 16.2501C5.30334 16.2501 4.33329 17.2201 4.33329 18.4167V19.5001C4.33329 20.6967 5.30334 21.6667 6.49996 21.6667H7.58329C8.77991 21.6667 9.74996 20.6967 9.74996 19.5001V16.2501H6.49996Z" fill="url(#paint2_linear_302_219871)"/>
<path d="M18.6875 23.5626C18.0891 23.5626 17.6041 23.0776 17.6041 22.4792V20.0417H15.1666C14.5683 20.0417 14.0833 19.5567 14.0833 18.9584C14.0833 18.3601 14.5683 17.8751 15.1666 17.8751H17.6041V15.4376C17.6041 14.8393 18.0891 14.3542 18.6875 14.3542C19.2858 14.3542 19.7708 14.8393 19.7708 15.4376V17.8751H22.2083C22.8066 17.8751 23.2916 18.3601 23.2916 18.9584C23.2916 19.5567 22.8066 20.0417 22.2083 20.0417H19.7708V22.4792C19.7708 23.0776 19.2858 23.5626 18.6875 23.5626Z" fill="url(#paint3_linear_302_219871)"/>
<defs>
<linearGradient id="paint0_linear_302_219871" x1="15.4463" y1="0.729074" x2="6.23681" y2="24.4013" gradientUnits="userSpaceOnUse">
<stop offset="0.123821" stop-color="#F9576F"/>
<stop offset="0.534026" stop-color="#EB43C1"/>
<stop offset="1" stop-color="#353EF9"/>
</linearGradient>
<linearGradient id="paint1_linear_302_219871" x1="15.4463" y1="0.729074" x2="6.23681" y2="24.4013" gradientUnits="userSpaceOnUse">
<stop offset="0.123821" stop-color="#F9576F"/>
<stop offset="0.534026" stop-color="#EB43C1"/>
<stop offset="1" stop-color="#353EF9"/>
</linearGradient>
<linearGradient id="paint2_linear_302_219871" x1="15.4463" y1="0.729074" x2="6.23681" y2="24.4013" gradientUnits="userSpaceOnUse">
<stop offset="0.123821" stop-color="#F9576F"/>
<stop offset="0.534026" stop-color="#EB43C1"/>
<stop offset="1" stop-color="#353EF9"/>
</linearGradient>
<linearGradient id="paint3_linear_302_219871" x1="15.4463" y1="0.729074" x2="6.23681" y2="24.4013" gradientUnits="userSpaceOnUse">
<stop offset="0.123821" stop-color="#F9576F"/>
<stop offset="0.534026" stop-color="#EB43C1"/>
<stop offset="1" stop-color="#353EF9"/>
</linearGradient>
</defs>
</svg>
