<svg width="26" height="26" viewBox="0 0 26 26" fill="none" xmlns="http://www.w3.org/2000/svg">
<path d="M19.5645 2.81405C19.8993 2.37922 20.5161 2.25888 20.9928 2.55379C21.4696 2.84921 21.6375 3.45561 21.3969 3.94922L21.344 4.04549L9.20728 23.6354C8.89229 24.1438 8.22412 24.3013 7.71558 23.9867C7.20752 23.6717 7.05011 23.0044 7.36434 22.496L19.5011 2.90609L19.5645 2.81405Z" fill="url(#paint0_linear_302_219862)"/>
<path d="M19.5 17.3333C19.5897 17.3333 19.6625 17.4065 19.6672 17.4962C19.7491 19.0716 21.0116 20.3342 22.5871 20.4161C22.6767 20.4207 22.75 20.4935 22.75 20.5833C22.75 20.673 22.6767 20.7458 22.5871 20.7504C21.0116 20.8323 19.7491 22.0949 19.6672 23.6703C19.6625 23.76 19.5897 23.8333 19.5 23.8333C19.4103 23.8333 19.3375 23.76 19.3328 23.6703C19.2509 22.0949 17.9884 20.8323 16.4129 20.7504C16.3233 20.7458 16.25 20.673 16.25 20.5833C16.25 20.4935 16.3233 20.4207 16.4129 20.4161C17.9884 20.3342 19.2509 19.0716 19.3328 17.4962C19.3375 17.4065 19.4103 17.3333 19.5 17.3333Z" fill="url(#paint1_linear_302_219862)"/>
<path d="M4.33333 8.6687C4.453 8.6687 4.54931 8.76608 4.5555 8.88558C4.66455 10.9865 6.34885 12.6708 8.44979 12.7799C8.56929 12.7861 8.66667 12.8824 8.66667 13.002C8.66667 13.1217 8.56929 13.218 8.44979 13.2242C6.34885 13.3332 4.66455 15.0176 4.5555 17.1185C4.54931 17.238 4.453 17.3354 4.33333 17.3354C4.21367 17.3354 4.11736 17.238 4.11117 17.1185C4.00212 15.0176 2.31782 13.3332 0.216878 13.2242C0.0973769 13.218 0 13.1217 0 13.002C6.98741e-08 12.8824 0.0973769 12.7861 0.216878 12.7799C2.31782 12.6708 4.00212 10.9865 4.11117 8.88558C4.11736 8.76608 4.21367 8.6687 4.33333 8.6687Z" fill="url(#paint2_linear_302_219862)"/>
<path d="M11.9167 1.08325C12.0064 1.08325 12.0792 1.15655 12.0838 1.24618C12.1657 2.82165 13.4283 4.08418 15.0037 4.1661C15.0934 4.17074 15.1667 4.24351 15.1667 4.33325C15.1667 4.423 15.0934 4.49576 15.0037 4.50041C13.4283 4.58233 12.1657 5.84486 12.0838 7.42033C12.0792 7.50995 12.0064 7.58325 11.9167 7.58325C11.8269 7.58325 11.7542 7.50995 11.7495 7.42033C11.6676 5.84486 10.4051 4.58233 8.82959 4.50041C8.73996 4.49576 8.66667 4.423 8.66667 4.33325C8.66667 4.24351 8.73996 4.17074 8.82959 4.1661C10.4051 4.08418 11.6676 2.82165 11.7495 1.24618C11.7542 1.15655 11.8269 1.08325 11.9167 1.08325Z" fill="url(#paint3_linear_302_219862)"/>
<defs>
<linearGradient id="paint0_linear_302_219862" x1="13.9437" y1="-0.447239" x2="4.04" y2="24.6611" gradientUnits="userSpaceOnUse">
<stop offset="0.123821" stop-color="#F9576F"/>
<stop offset="0.534026" stop-color="#EB43C1"/>
<stop offset="1" stop-color="#353EF9"/>
</linearGradient>
<linearGradient id="paint1_linear_302_219862" x1="13.9437" y1="-0.447239" x2="4.04" y2="24.6611" gradientUnits="userSpaceOnUse">
<stop offset="0.123821" stop-color="#F9576F"/>
<stop offset="0.534026" stop-color="#EB43C1"/>
<stop offset="1" stop-color="#353EF9"/>
</linearGradient>
<linearGradient id="paint2_linear_302_219862" x1="13.9437" y1="-0.447239" x2="4.04" y2="24.6611" gradientUnits="userSpaceOnUse">
<stop offset="0.123821" stop-color="#F9576F"/>
<stop offset="0.534026" stop-color="#EB43C1"/>
<stop offset="1" stop-color="#353EF9"/>
</linearGradient>
<linearGradient id="paint3_linear_302_219862" x1="13.9437" y1="-0.447239" x2="4.04" y2="24.6611" gradientUnits="userSpaceOnUse">
<stop offset="0.123821" stop-color="#F9576F"/>
<stop offset="0.534026" stop-color="#EB43C1"/>
<stop offset="1" stop-color="#353EF9"/>
</linearGradient>
</defs>
</svg>
