<svg width="26" height="26" viewBox="0 0 26 26" fill="none" xmlns="http://www.w3.org/2000/svg">
<path d="M14.4445 7.58325H21.125V9.63108C20.2746 9.79484 19.4394 10.1196 18.7146 10.6643C17.5019 11.5754 16.7917 12.9648 16.7917 14.6249C16.7917 16.2851 17.5019 17.6744 18.7146 18.5856C19.4394 19.1302 20.2746 19.455 21.125 19.6188V21.6666H4.87504V7.58325H10.1111V5.41659C10.1111 4.21997 11.0812 3.24992 12.2778 3.24992C13.4744 3.24992 14.4445 4.21997 14.4445 5.41659V7.58325ZM16.6111 5.41659C16.6111 3.02335 14.671 1.08325 12.2778 1.08325C9.88458 1.08325 7.94448 3.02335 7.94448 5.41659H4.15282C3.35507 5.41659 2.70837 6.06329 2.70837 6.86103V22.3888C2.70837 23.1866 3.35507 23.8333 4.15282 23.8333H21.8473C22.645 23.8333 23.2917 23.1866 23.2917 22.3888V18.2408C23.2917 17.8651 22.9452 17.586 22.5695 17.586C20.5751 17.586 18.9584 16.6193 18.9584 14.6249C18.9584 12.6306 20.5751 11.6638 22.5695 11.6638C22.9452 11.6638 23.2917 11.3847 23.2917 11.009V6.86103C23.2917 6.06329 22.645 5.41659 21.8473 5.41659H16.6111Z" fill="url(#paint0_linear_302_219880)"/>
<defs>
<linearGradient id="paint0_linear_302_219880" x1="15.3241" y1="-0.426307" x2="4.93874" y2="23.726" gradientUnits="userSpaceOnUse">
<stop offset="0.123821" stop-color="#F9576F"/>
<stop offset="0.534026" stop-color="#EB43C1"/>
<stop offset="1" stop-color="#353EF9"/>
</linearGradient>
</defs>
</svg>
