<svg width="26" height="26" viewBox="0 0 26 26" fill="none" xmlns="http://www.w3.org/2000/svg">
<path d="M23.7319 2.28263C24.1549 2.7057 24.1549 3.39163 23.7319 3.8147L22.1362 5.41032C23.9453 7.94879 23.7112 11.4957 21.4338 13.7731L19.9017 15.3052C19.4786 15.7282 18.7927 15.7282 18.3696 15.3052L10.7093 7.64486C10.2862 7.22179 10.2862 6.53586 10.7093 6.11279L12.2414 4.58073C14.5188 2.30332 18.0657 2.06916 20.6042 3.87825L22.1998 2.28263C22.6229 1.85957 23.3088 1.85957 23.7319 2.28263ZM13.7734 6.11279L13.0074 6.87883L19.1357 13.0071L19.9017 12.2411C21.594 10.5488 21.594 7.80506 19.9017 6.11279C18.2094 4.42052 15.4657 4.42052 13.7734 6.11279Z" fill="url(#paint0_linear_302_219853)"/>
<path d="M5.41065 22.1359C7.94912 23.945 11.496 23.7108 13.7735 21.4334L15.3055 19.9014C15.7286 19.4783 15.7286 18.7924 15.3055 18.3693L14.5395 17.6033L15.6886 16.4542C16.1117 16.0312 16.1117 15.3452 15.6886 14.9222C15.2655 14.4991 14.5796 14.4991 14.1565 14.9222L13.0075 16.0712L9.94331 13.0071L11.0924 11.858C11.5154 11.435 11.5154 10.749 11.0924 10.326C10.6693 9.9029 9.98336 9.9029 9.56029 10.326L8.41124 11.475L7.6452 10.709C7.22213 10.2859 6.53621 10.2859 6.11314 10.709L4.58107 12.241C2.30366 14.5185 2.0695 18.0654 3.87859 20.6038L2.28297 22.1995C1.8599 22.6225 1.8599 23.3085 2.28297 23.7315C2.70604 24.1546 3.39197 24.1546 3.81503 23.7315L5.41065 22.1359ZM6.11314 19.9014C4.42087 18.2091 4.42087 15.4654 6.11314 13.7731L6.87917 13.0071L7.64369 13.7716L7.64521 13.7731L13.0074 19.1353L12.2414 19.9014C10.5491 21.5936 7.80541 21.5936 6.11314 19.9014Z" fill="url(#paint1_linear_302_219853)"/>
<defs>
<linearGradient id="paint0_linear_302_219853" x1="15.5008" y1="0.5" x2="6.11416" y2="24.6277" gradientUnits="userSpaceOnUse">
<stop offset="0.123821" stop-color="#F9576F"/>
<stop offset="0.534026" stop-color="#EB43C1"/>
<stop offset="1" stop-color="#353EF9"/>
</linearGradient>
<linearGradient id="paint1_linear_302_219853" x1="15.5008" y1="0.5" x2="6.11416" y2="24.6277" gradientUnits="userSpaceOnUse">
<stop offset="0.123821" stop-color="#F9576F"/>
<stop offset="0.534026" stop-color="#EB43C1"/>
<stop offset="1" stop-color="#353EF9"/>
</linearGradient>
</defs>
</svg>
